<?xml version="1.0" standalone="no"?>
<!DOCTYPE svg PUBLIC "-//W3C//DTD SVG 20010904//EN"
 "http://www.w3.org/TR/2001/REC-SVG-20010904/DTD/svg10.dtd">
<svg version="1.0" xmlns="http://www.w3.org/2000/svg"
 width="460.000000pt" height="460.000000pt" viewBox="0 0 460.000000 460.000000"
 preserveAspectRatio="xMidYMid meet">
<metadata>
Created by potrace 1.14, written by Peter Selinger 2001-2017
</metadata>
<g transform="translate(0.000000,460.000000) scale(0.100000,-0.100000)"
fill="#000000" stroke="none">
<path d="M2128 4595 c-2 -1 -34 -5 -73 -9 -38 -3 -81 -8 -95 -11 -14 -3 -38
-7 -55 -9 -118 -17 -349 -84 -486 -141 -615 -258 -1090 -768 -1300 -1398 -37
-110 -76 -266 -84 -337 -4 -30 -9 -58 -11 -61 -25 -41 -25 -511 0 -659 3 -14
7 -43 11 -65 55 -373 267 -818 530 -1114 249 -282 489 -453 880 -627 37 -17
265 -92 297 -98 13 -2 57 -11 98 -20 78 -16 108 -20 225 -35 73 -9 463 -7 504
3 12 3 42 7 65 10 128 15 366 79 511 136 456 181 853 515 1115 934 172 277
294 636 328 966 9 86 8 474 -2 520 -7 37 -28 152 -31 175 -1 11 -8 40 -15 65
-7 25 -14 55 -16 66 -17 92 -96 299 -174 453 -72 145 -212 358 -283 433 -6 7
-44 49 -82 92 -203 228 -547 462 -856 582 -83 32 -237 80 -289 90 -13 3 -54
11 -90 19 -36 8 -88 17 -116 20 -27 4 -60 9 -74 11 -27 6 -426 14 -432 9z"/>
</g>
</svg>
